<?xml version="1.0" encoding="utf-8"?>
<svg xmlns="http://www.w3.org/2000/svg" xmlns:xlink="http://www.w3.org/1999/xlink" version= "1.1" width="480px" height="800px" viewBox="0 0 480 800">
<g id="layer1">
<g style="fill:rgb(0,0,0); fill-opacity:1.0; stroke-linejoin: miter">
<path d="M28.833305,178.43752L28.833305,178.43752L85.40046,175.4919C90.68735,175.2166,95.521,178.46516,97.263016,183.4644L97.263016,183.4644L188.13629,444.2536L177.00575,436.2655L389.1585,438.27658L378.30017,445.05435L472.00284,248.70992C474.83502,242.77534,481.9419,240.26038,487.87646,243.09256C493.81104,245.92474,496.326,253.03162,493.4938,258.9662L493.4938,258.9662L399.79114,455.31064C397.79718,459.48877,393.56213,462.1323,388.9328,462.0884L388.9328,462.0884L176.78004,460.07733C171.7561,460.0297,167.3027,456.83362,165.6495,452.08923L165.6495,452.08923L74.77623,191.30003L86.63879,199.27254L30.071632,202.21815C23.504787,202.5601,17.904099,197.51385,17.562143,190.947C17.220188,184.38016,22.26646,178.77946,28.833305,178.43752 Z"/>
</g>
<g style="fill:rgb(0,0,0); fill-opacity:1.0; stroke-linejoin: miter">
<path d="M433.61383,560.3493L433.61383,560.3493C433.61383,578.3039,419.05878,592.859,401.10416,592.859L401.10416,592.859C383.14954,592.859,368.59445,578.3039,368.59445,560.3493L368.59445,560.3493C368.59445,542.3947,383.14954,527.8396,401.10416,527.8396L401.10416,527.8396C419.05872,527.8396,433.61383,542.3947,433.61383,560.3493L433.61383,560.3493 M426.0763,560.3493L426.0763,560.3493C426.07623,546.5577,414.89578,535.3772,401.10416,535.3772L401.10416,535.3772C387.31244,535.3772,376.13208,546.5577,376.13208,560.3493L376.13208,560.3493C376.13208,574.1409,387.31244,585.3214,401.10416,585.3214L401.10416,585.3214C414.8958,585.3214,426.0763,574.1409,426.0763,560.3493 Z"/>
</g>
<g style="fill:rgb(0,0,0); fill-opacity:1.0; stroke-linejoin: miter">
<path d="M401.10416,535.25525C387.24512,535.25525,376.01016,546.49036,376.01016,560.3493C376.01016,574.20825,387.24512,585.44336,401.10416,585.44336C414.96313,585.44336,426.1982,574.2081,426.1982,560.3493C426.19815,546.4905,414.9631,535.25525,401.10416,535.25525 Z"/>
</g>
<g style="fill:rgb(0,0,0); fill-opacity:1.0; stroke-linejoin: miter">
<path d="M189.14145,449.05734L189.14145,449.05734L189.14145,449.05835C189.14145,451.1259,188.60306,453.15778,187.57928,454.95404L187.57928,454.95404L161.1392,501.34442C161.04861,501.5034,160.95436,501.66025,160.85654,501.81485L160.85655,501.81482C158.03636,506.27213,156.70854,508.55786,156.3798,509.6163L156.37984,509.6162C156.17186,510.28586,157.29187,507.59915,155.53792,504.16824L155.53793,504.1683C153.42847,500.04193,149.74394,499.64597,150.59792,499.81998L150.59793,499.81998C150.76926,499.8549,151.4743,499.94693,153.00098,499.94693L153.00098,499.94693C154.55418,499.94693,156.32056,499.86057,158.4738,499.7519C158.67732,499.7416,158.88103,499.73657,159.08481,499.73676L159.08481,499.73676L428.45706,499.98114C435.0328,499.9871,440.35864,505.32263,440.3527,511.89838C440.34674,518.4741,435.0112,523.8,428.43546,523.794L428.43546,523.794L159.0632,523.5496L159.67421,523.5345C157.66203,523.63605,155.26537,523.7598,153.00098,523.7598L153.00098,523.7598C150.93753,523.7598,148.3564,523.66547,145.8432,523.1533L145.84322,523.1533C143.4934,522.6745,137.4556,521.1117,134.33505,515.00757L134.33507,515.0076C131.68042,509.81488,132.96474,504.72263,133.63853,502.55316L133.63857,502.55307C135.12973,497.75198,138.67761,492.3317,140.73332,489.08264L140.45067,489.55304L166.89075,443.16266L165.32858,449.05835L165.32858,449.05734C165.32858,442.4816,170.65927,437.1509,177.23502,437.1509C183.81076,437.1509,189.14145,442.4816,189.14145,449.05734 Z"/>
</g>
<g style="fill:rgb(0,0,0); fill-opacity:1.0; stroke-linejoin: miter">
<path d="M198.38208,560.9678L198.38208,560.9678C198.38208,578.9224,183.827,593.47754,165.87234,593.47754L165.87234,593.47754C147.9177,593.47754,133.36258,578.9224,133.36258,560.9678L133.36258,560.9678C133.36261,543.0131,147.91772,528.45795,165.87238,528.45795L165.87238,528.45795C183.82697,528.45795,198.38211,543.0131,198.38208,560.9678L198.38208,560.9678 M190.84454,560.9678L190.84454,560.9678C190.84451,547.1761,179.66403,535.99554,165.87238,535.99554L165.87238,535.99554C152.08063,535.99554,140.90027,547.1761,140.90024,560.9678L140.90024,560.9678C140.90024,574.7594,152.0806,585.93994,165.87234,585.93994L165.87234,585.93994C179.66403,585.93994,190.84454,574.7594,190.84454,560.9678 Z"/>
</g>
<g style="fill:rgb(0,0,0); fill-opacity:1.0; stroke-linejoin: miter">
<path d="M165.87238,535.5412C151.82974,535.5412,140.44592,546.92535,140.44589,560.9678C140.44589,575.01025,151.8297,586.3943,165.87234,586.3943C179.915,586.3943,191.29889,575.01025,191.29889,560.9678C191.29886,546.92523,179.91489,535.5412,165.87238,535.5412 Z"/>
</g>
<g style="fill:rgb(0,0,0); fill-opacity:1.0; stroke-linejoin: miter">
<path d="M297.3862,169.6556L297.3862,169.6556L309.04312,370.80432C309.59317,380.2959,302.34467,388.4363,292.8531,388.98636C283.36145,389.53644,275.22107,382.28787,274.67102,372.7963L274.67102,372.7963L263.01407,171.64757C262.46402,162.15602,269.71255,154.01564,279.2041,153.46555C288.69574,152.9155,296.8361,160.16405,297.3862,169.6556 Z"/>
</g>
<g style="fill:rgb(0,0,0); fill-opacity:1.0; stroke-linejoin: miter">
<path d="M177.72906,256.93985L177.72906,256.93985L394.91302,247.95068C404.1645,247.56778,411.97467,254.75714,412.3576,264.0086C412.7405,273.26007,405.55106,281.07025,396.29965,281.45316L396.29965,281.45316L179.1157,290.4424C169.86424,290.8253,162.05406,283.6359,161.67113,274.3844C161.2882,265.13297,168.47763,257.32275,177.72906,256.93985 Z"/>
</g>
</g>
</svg>